<?xml version="1.0" encoding="UTF-8"?>
<svg version="1.1" xmlns="http://www.w3.org/2000/svg" width="650" height="650">
<path d="M0 0 C0.70189453 0.33725098 1.40378906 0.67450195 2.12695312 1.02197266 C28.86356634 14.07434616 55.12269524 33.87306503 74 57 C74.72960937 57.84175781 75.45921875 58.68351562 76.2109375 59.55078125 C103.55689283 91.42564085 120.12992508 129.19886464 129 170 C129.29463135 171.34094727 129.29463135 171.34094727 129.59521484 172.70898438 C135.45919803 201.01322477 133.97857149 233.87243037 128 262 C127.81276367 262.90105469 127.62552734 263.80210937 127.43261719 264.73046875 C116.06817195 317.88231282 85.20760923 367.81154653 42 401 C41.43941895 401.4316748 40.87883789 401.86334961 40.30126953 402.30810547 C31.24856249 409.23597173 21.92927836 415.40651454 12 421 C11.31019043 421.39541992 10.62038086 421.79083984 9.90966797 422.19824219 C-22.80538453 440.81872569 -60.37195808 451.0286813 -98 452 C-99.05574219 452.03996094 -100.11148438 452.07992188 -101.19921875 452.12109375 C-128.98214454 452.69082805 -156.73383038 447.89857194 -183 439 C-183.68143066 438.77231934 -184.36286133 438.54463867 -185.06494141 438.31005859 C-210.57653305 429.65982873 -234.39875989 416.33518985 -255 399 C-256.16921328 398.03508651 -257.33848532 397.07024421 -258.5078125 396.10546875 C-270.50750948 386.10517228 -281.39647238 375.34243983 -291 363 C-291.77601563 362.0409375 -292.55203125 361.081875 -293.3515625 360.09375 C-320.13761167 326.41985961 -336.48164508 285.57233622 -342 243 C-342.0942627 242.31671631 -342.18852539 241.63343262 -342.28564453 240.92944336 C-349.67581552 179.48790551 -331.53817791 116.63306436 -293.77661133 67.91992188 C-289.29582215 62.25773064 -284.62893171 56.84060851 -279.60058594 51.65185547 C-278.44179538 50.45594685 -277.28962968 49.25360722 -276.14160156 48.04736328 C-266.15959018 37.58250789 -255.80059898 28.36055079 -244 20 C-243.3901123 19.56139648 -242.78022461 19.12279297 -242.15185547 18.67089844 C-209.79274981 -4.45162126 -172.26621803 -17.82333006 -133 -23 C-132.23236328 -23.103125 -131.46472656 -23.20625 -130.67382812 -23.3125 C-85.95284664 -28.5693744 -40.33373305 -19.39401546 0 0 Z M-212 82 C-212.96151248 86.09727457 -213.18870255 90.01173572 -213.30615234 94.21435547 C-213.35068663 95.68180596 -213.3956595 97.14924319 -213.44100952 98.6166687 C-213.46387402 99.38992367 -213.48673851 100.16317863 -213.51029587 100.95986557 C-213.66754329 105.96432085 -213.87660849 110.96694333 -214.07680321 115.96983147 C-214.24901825 120.34606747 -214.40287632 124.72142134 -214.51611328 129.09960938 C-214.62720996 133.35495344 -214.79022707 137.60565242 -214.98656082 141.85788345 C-215.05177974 143.4636717 -215.09910827 145.07030687 -215.12675095 146.67718124 C-215.35436473 159.00492501 -218.68954749 165.98488516 -226.65117264 175.32510757 C-242.00014474 194.38453492 -246.87441107 221.19974115 -245 245 C-241.39068326 275.89301436 -224.90860877 302.3942468 -201 322 C-167.12226701 348.46549407 -124.58973404 356.88211927 -82.4375 352.5390625 C-78.21972654 351.9613354 -74.12003246 351.06122048 -70 350 C-69.17435547 349.79600586 -68.34871094 349.59201172 -67.49804688 349.38183594 C-42.70067621 343.15074828 -20.86080596 332.45519034 -2 315 C-1.13117188 314.21238281 -0.26234375 313.42476562 0.6328125 312.61328125 C19.94395214 294.30099366 33.34592957 268.30946034 34.23828125 241.48046875 C34.72539082 213.8819815 28.07355495 188.30939961 9.56640625 167.0859375 C6.54492374 163.0623174 6.76723898 158.49293255 6.55102539 153.61694336 C6.51507767 152.87990677 6.47912994 152.14287018 6.4420929 151.38349915 C6.3645855 149.78704201 6.28882555 148.19049929 6.21461678 146.59388542 C6.09663278 144.067932 5.97282286 141.54232699 5.84727478 139.01673889 C5.49111534 131.83733676 5.14299159 124.65757246 4.80493164 117.47729492 C4.59761489 113.08269211 4.38139168 108.68860226 4.15954399 104.29471016 C4.07678922 102.61991421 3.99748611 100.94494405 3.92167854 99.26981926 C3.81560874 96.93060314 3.6982726 94.59220404 3.57836914 92.25366211 C3.54972778 91.56007599 3.52108643 90.86648987 3.49157715 90.15188599 C3.29711161 86.60408735 3.02538647 85.0380797 1 82 C0.3922876 82.39678955 -0.2154248 82.7935791 -0.84155273 83.20239258 C-26.11475967 99.70127148 -26.11475967 99.70127148 -32.69482422 103.90844727 C-36.58555629 106.4026861 -40.41360577 108.96687746 -44.2109375 111.6015625 C-45.10079346 112.20790527 -45.99064941 112.81424805 -46.9074707 113.43896484 C-48.6343598 114.6169017 -50.34986034 115.81177137 -52.05151367 117.02587891 C-58.62410697 121.46669329 -58.62410697 121.46669329 -63.12109375 120.953125 C-64.40113281 120.63859375 -65.68117188 120.3240625 -67 120 C-68.2478125 119.7628125 -69.495625 119.525625 -70.78125 119.28125 C-73.26041667 118.76041667 -75.73958333 118.23958333 -78.21875 117.71875 C-87.11735536 116.02727956 -95.76624213 115.76161369 -104.8125 115.75 C-105.49953003 115.74832825 -106.18656006 115.74665649 -106.89440918 115.74493408 C-116.70165305 115.7435067 -126.21266416 116.26763962 -135.859375 118.1484375 C-136.84635376 118.33635864 -136.84635376 118.33635864 -137.85327148 118.52807617 C-140.08660302 118.98992288 -140.08660302 118.98992288 -142.57055664 119.77856445 C-146.68515589 120.87096491 -149.65662189 121.51469127 -153.70947266 119.96191406 C-156.58320123 118.26425174 -159.24850588 116.41463282 -161.9375 114.4375 C-163.9591866 113.0345093 -165.98133047 111.6321773 -168.00390625 110.23046875 C-169.00824707 109.51810059 -170.01258789 108.80573242 -171.04736328 108.07177734 C-175.41225845 105.00906026 -179.88843731 102.13006675 -184.375 99.25 C-185.99409112 98.20014587 -187.61258908 97.14937633 -189.23046875 96.09765625 C-190.40681885 95.33412842 -190.40681885 95.33412842 -191.60693359 94.55517578 C-194.06924938 92.95499709 -196.52890674 91.35078859 -198.98828125 89.74609375 C-200.55464933 88.72650386 -202.12105395 87.70697009 -203.6875 86.6875 C-204.41308105 86.21280273 -205.13866211 85.73810547 -205.88623047 85.24902344 C-208.73518192 83.01570071 -208.73518192 83.01570071 -212 82 Z " fill="#000000" transform="translate(422,128)"/>
</svg>
