<?xml version="1.0" standalone="no"?>
<!DOCTYPE svg PUBLIC "-//W3C//DTD SVG 20010904//EN"
 "http://www.w3.org/TR/2001/REC-SVG-20010904/DTD/svg10.dtd">
<svg version="1.0" xmlns="http://www.w3.org/2000/svg"
 viewBox="0 0 2600.000000 2600.000000"
 preserveAspectRatio="xMidYMid meet">
<metadata>
Created by potrace 1.15, written by Peter Selinger 2001-2017
</metadata>
<g transform="translate(0.000000,2600.000000) scale(0.100000,-0.100000)"
fill="#000000" stroke="none">
<path d="M12190 21800 c-1323 -73 -2554 -392 -3705 -960 -956 -472 -1776
-1059 -2530 -1815 -1468 -1468 -2398 -3341 -2685 -5405 -96 -694 -112 -1479
-44 -2190 165 -1742 805 -3394 1858 -4795 447 -596 997 -1169 1576 -1642 1484
-1214 3243 -1931 5165 -2107 541 -50 1227 -46 1780 9 1737 174 3370 812 4761
1861 828 624 1566 1399 2146 2254 899 1324 1448 2859 1593 4450 50 554 50
1188 -1 1745 -160 1757 -819 3453 -1888 4855 -1410 1850 -3420 3111 -5681
3565 -402 80 -787 132 -1230 165 -186 14 -920 21 -1115 10z m-2566 -4948 c682
-442 1245 -806 1252 -809 6 -2 73 12 148 31 554 143 1056 207 1635 207 584 0
1085 -63 1639 -207 l174 -45 1265 821 c696 452 1266 820 1267 818 2 -2 40
-716 85 -1588 45 -872 84 -1620 88 -1663 l6 -78 72 -87 c849 -1026 1190 -2272
960 -3516 -264 -1428 -1299 -2694 -2789 -3411 -666 -321 -1368 -513 -2166
-592 -219 -22 -929 -25 -1140 -5 -851 80 -1567 276 -2269 622 -822 405 -1500
971 -1996 1665 -718 1006 -973 2210 -714 3375 149 672 475 1316 958 1894 64
76 91 116 91 135 0 48 160 3125 166 3189 4 44 9 60 17 55 7 -4 570 -369 1251
-811z"/>
</g>
</svg>
